<svg xmlns="http://www.w3.org/2000/svg" xmlns:xlink="http://www.w3.org/1999/xlink" x="0px" y="0px" viewBox="0 0 140 50" style="enable-background:new 0 0 140 50;" xml:space="preserve"><style type="text/css">	.st0{fill:#00A1D8;}	.st1{fill:#F0DA90;}	.st2{fill:#00A2D7;}	.st3{fill:#ECCB7E;}	.st4{fill:#F1D8A0;}	.st5{fill:#F2DA9F;}	.st6{fill:#D04C59;}	.st7{fill:#FEFDFC;}</style><g id="Layer_1"></g><g id="Isolation_Mode">	<g>		<g>			<path class="st0" d="M59.25,27.35c0.86,1.75-3.14,2.07-3.95,0c-0.65-1.66-0.14-4.1,1.87-4.49c0.74-0.14,2.64,0.05,2.12,1.33     c-0.03,0.08-0.12,0.11-0.19,0.08c0,0-0.01,0-0.01-0.01c-0.31-0.17-0.59-0.37-0.91-0.44c-2.79-0.63-2.4,5.79,0.91,3.47     C59.16,27.26,59.21,27.27,59.25,27.35z"></path>			<path class="st0" d="M65.28,26.38c-0.01,1.34-1.11,2.42-2.45,2.41l0,0l-0.55,0c-1.34-0.01-2.42-1.11-2.41-2.45c0,0,0,0,0,0     l0.01-1.08c0.01-1.34,1.11-2.42,2.45-2.41l0,0l0.55,0c1.34,0.01,2.42,1.11,2.41,2.45l0,0L65.28,26.38z M64.06,25.21     c0.02-0.75-0.57-1.37-1.32-1.39l-0.22-0.01c-0.75-0.02-1.37,0.57-1.39,1.32l-0.03,1.28c-0.02,0.75,0.57,1.37,1.32,1.39h0     l0.22,0.01c0.75,0.02,1.37-0.57,1.39-1.32L64.06,25.21z"></path>			<path class="st0" d="M97.7,28.41c-2.09-1.21-1.31-5.57,1.4-5.58c0.88,0,1.9,0.15,1.72,1.3c-0.02,0.1-0.11,0.17-0.21,0.15     c-0.03,0-0.06-0.02-0.08-0.03c-3.39-2.41-3.89,5.41,0.05,3.09c0.08-0.05,0.18-0.02,0.23,0.06c0.01,0.02,0.02,0.03,0.02,0.05     C101.19,29.19,98.47,28.86,97.7,28.41z"></path>			<path class="st0" d="M117.89,28.09c-1.13,1.08-3.81,1.01-4.4-0.7c-0.78-2.23,0.05-4.72,2.85-4.56     C118.98,22.99,119.46,26.57,117.89,28.09z M117.44,25.19c0.01-0.74-0.59-1.36-1.33-1.37c0,0,0,0,0,0l-0.22,0     c-0.74-0.01-1.36,0.59-1.37,1.33v0l-0.02,1.28c-0.01,0.74,0.59,1.36,1.33,1.37c0,0,0,0,0,0l0.22,0c0.74,0.01,1.36-0.59,1.37-1.33     c0,0,0,0,0,0L117.44,25.19z"></path>			<path class="st0" d="M41.32,24.17c-0.03,1.19-0.02,2.38,0.04,3.6c0.02,0.38,0.03,0.58,0.02,0.6c-0.06,0.21-0.25,0.34-0.57,0.4     c-0.41,0.07-0.61-0.1-0.61-0.51c0-1.56,0-3.21,0-4.95c0-0.23,0.12-0.35,0.36-0.37c0.89-0.07,1.51-0.22,1.87,0.79     c0.38,1.05,0.74,2.09,1.1,3.11c0.02,0.05,0.07,0.08,0.12,0.06c0.03-0.01,0.05-0.03,0.06-0.06c0.42-1.13,0.85-2.26,1.28-3.39     c0.26-0.69,1.28-0.67,1.85-0.45c0.1,0.04,0.16,0.13,0.16,0.24v5.32c0,0.09-0.07,0.17-0.17,0.17h0l-0.81,0.01     c-0.09,0-0.13-0.04-0.13-0.13v-4.11c0-0.51-0.08-0.52-0.25-0.04l-1.37,3.91c-0.13,0.38-0.54,0.57-0.92,0.44     c-0.21-0.07-0.37-0.24-0.45-0.45l-1.41-4.2c-0.01-0.04-0.06-0.07-0.11-0.05C41.35,24.1,41.33,24.13,41.32,24.17z"></path>			<path class="st0" d="M49.95,25.24c0.02,0.04,0.07,0.06,0.11,0.04c0.02-0.01,0.03-0.02,0.04-0.04l0.91-2.17     c0.04-0.1,0.14-0.16,0.25-0.16h0.9c0.09,0,0.15,0.07,0.15,0.16c0,0.02-0.01,0.05-0.02,0.07c-0.49,0.94-0.95,1.86-1.4,2.76     c-0.44,0.88-0.32,1.7-0.3,2.63c0,0.12-0.06,0.18-0.18,0.18l-0.85,0.01c-0.1,0-0.15-0.05-0.15-0.15c0-0.89,0.15-1.75-0.27-2.57     c-0.48-0.94-0.95-1.88-1.41-2.8c-0.05-0.1-0.01-0.22,0.09-0.27c0.03-0.01,0.06-0.02,0.09-0.02h0.86c0.1,0,0.17,0.04,0.21,0.13     L49.95,25.24z"></path>			<path class="st0" d="M69.81,26.83c0.4-1.12,0.82-2.24,1.27-3.38c0.29-0.73,1.25-0.66,1.83-0.45c0.1,0.03,0.16,0.12,0.16,0.23     v5.32c0,0.11-0.06,0.17-0.17,0.17h-0.78c-0.12,0-0.17-0.06-0.17-0.18l0.03-4.3c0-0.06-0.05-0.11-0.11-0.11     c-0.05,0-0.09,0.03-0.11,0.08c-0.42,1.32-0.86,2.63-1.33,3.91c-0.24,0.64-0.5,0.77-1.16,0.56c-0.12-0.04-0.21-0.13-0.25-0.24     l-1.44-4.26c-0.02-0.05-0.07-0.07-0.12-0.06c-0.04,0.01-0.06,0.05-0.06,0.08l0.07,4.34c0,0.1-0.08,0.18-0.18,0.18c0,0,0,0,0,0     h-0.78c-0.11,0-0.17-0.06-0.17-0.17v-5.33c0-0.1,0.05-0.17,0.14-0.21c0.54-0.25,1.68-0.21,1.92,0.44     c0.41,1.12,0.81,2.25,1.19,3.38c0.02,0.06,0.08,0.09,0.14,0.07C69.77,26.89,69.79,26.86,69.81,26.83z"></path>			<path class="st0" d="M75.4,24.1l0.04,4.44c0,0.12-0.06,0.18-0.18,0.18h-0.78c-0.09,0-0.17-0.08-0.17-0.17v-5.26     c0-0.18,0.13-0.33,0.31-0.36c0.53-0.09,1.05-0.04,1.54,0.13c0.07,0.03,0.13,0.08,0.16,0.16l1.31,3.63     c0.02,0.05,0.08,0.08,0.13,0.06c0.03-0.01,0.05-0.03,0.06-0.06c0.34-0.97,0.69-1.94,1.06-2.91c0.38-1.02,0.9-1.29,1.95-0.95     c0.16,0.05,0.27,0.21,0.27,0.38v5.16c0,0.1-0.08,0.19-0.18,0.19l-0.78,0.01c-0.12,0-0.22-0.09-0.23-0.22c0,0,0-0.01,0-0.01     l0.07-4.35c0-0.04-0.03-0.08-0.07-0.08c-0.04,0-0.07,0.02-0.08,0.06l-1.46,4.22c-0.13,0.38-0.55,0.58-0.92,0.45     c-0.21-0.07-0.38-0.24-0.45-0.45l-1.44-4.25c-0.02-0.04-0.06-0.06-0.1-0.05C75.42,24.04,75.4,24.07,75.4,24.1z"></path>			<path class="st0" d="M87.06,26.43c0.01,3.2-4.66,3.21-4.69,0.17c-0.01-1.17-0.01-2.34-0.01-3.53c0-0.11,0.06-0.16,0.17-0.16h0.84     c0.09,0,0.16,0.07,0.16,0.16c0.01,1.15,0.01,2.29,0,3.43c-0.01,1.31,1.63,1.89,2.24,0.73c0.41-0.77,0.19-3.2,0.18-4.14     c0-0.09,0.07-0.17,0.17-0.17c0,0,0,0,0,0l0.81-0.01c0.11,0,0.16,0.05,0.16,0.16C87.06,24.2,87.05,25.32,87.06,26.43z"></path>			<path class="st0" d="M89.56,24.57c-0.02-0.05-0.08-0.07-0.13-0.04c-0.03,0.02-0.05,0.05-0.05,0.08l0.04,3.93     c0,0.1-0.08,0.18-0.18,0.18c0,0,0,0-0.01,0l-0.7-0.02c-0.1,0-0.18-0.08-0.18-0.19l-0.01-5.29c0-0.08,0.05-0.16,0.12-0.2     c0.74-0.38,1.4-0.17,1.82,0.59c0.57,1.04,1.1,2.08,1.6,3.13c0.02,0.05,0.08,0.07,0.12,0.05c0.04-0.02,0.06-0.05,0.06-0.09     l-0.06-3.62c0-0.1,0.08-0.18,0.18-0.18c0,0,0,0,0,0h0.78c0.09,0,0.17,0.08,0.17,0.17v5.19c0,0.2-0.13,0.37-0.32,0.41     c-0.77,0.2-1.12-0.02-1.5-0.7C90.69,26.85,90.1,25.71,89.56,24.57z"></path>			<path class="st0" d="M94.62,22.91l0.71,0c0.13,0,0.24,0.11,0.23,0.24l-0.01,5.34c0,0.13-0.11,0.24-0.24,0.23l-0.71,0     c-0.13,0-0.24-0.11-0.23-0.24l0.01-5.34C94.38,23.01,94.49,22.91,94.62,22.91z"></path>			<path class="st0" d="M102.86,27.36c-0.1,0-0.19,0.06-0.22,0.15l-0.35,1.04c-0.04,0.11-0.12,0.17-0.24,0.17h-0.77     c-0.09,0-0.16-0.07-0.16-0.16c0-0.02,0-0.04,0.01-0.05l1.75-5.06c0.18-0.51,0.73-0.78,1.24-0.61c0.28,0.1,0.51,0.32,0.61,0.6     l1.76,5.02c0.04,0.1-0.01,0.21-0.11,0.24c-0.02,0.01-0.04,0.01-0.07,0.01h-0.89c-0.09,0-0.17-0.06-0.19-0.14l-0.26-0.92     c-0.05-0.15-0.19-0.26-0.35-0.26L102.86,27.36z M102.96,26.4c-0.01,0.04,0.01,0.09,0.05,0.1c0.01,0,0.02,0,0.02,0l1.45-0.01     c0.04,0,0.08-0.03,0.08-0.08c0-0.01,0-0.02,0-0.03l-0.74-2.15c-0.01-0.04-0.06-0.06-0.1-0.05c-0.02,0.01-0.04,0.03-0.05,0.05     L102.96,26.4z"></path>			<path class="st0" d="M107.39,23.89h-1.25c-0.1,0-0.19-0.08-0.19-0.19l0,0v-0.6c0-0.1,0.08-0.19,0.19-0.19l0,0h4.04     c0.1,0,0.18,0.08,0.19,0.18l0.04,0.59c0.01,0.1-0.07,0.19-0.17,0.2c0,0-0.01,0-0.01,0l-1.27,0.03c-0.1,0-0.19,0.09-0.19,0.19     v4.45c0,0.1-0.08,0.19-0.19,0.19l0,0l-0.8,0.01c-0.1,0-0.19-0.08-0.19-0.19l0,0v-4.46C107.58,23.97,107.49,23.89,107.39,23.89     L107.39,23.89z"></path>			<path class="st0" d="M111.28,22.91l0.71,0c0.13,0,0.24,0.11,0.23,0.24l-0.01,5.34c0,0.13-0.11,0.24-0.24,0.23l-0.71,0     c-0.13,0-0.24-0.11-0.23-0.24l0.01-5.34C111.05,23.01,111.15,22.91,111.28,22.91z"></path>			<path class="st0" d="M120.76,24.52c-0.01,1.17,0,2.36,0.03,3.58c0.01,0.27-0.05,0.45-0.18,0.56c-0.18,0.15-0.43,0.14-0.75-0.02     c-0.1-0.05-0.15-0.13-0.15-0.24c0.02-1.53,0.24-3.62-0.06-4.98c-0.05-0.21,0.05-0.35,0.27-0.44c0.71-0.28,1.31-0.11,1.7,0.59     c0.58,1.03,1.12,2.09,1.62,3.17c0.02,0.05,0.09,0.07,0.14,0.05c0.03-0.02,0.06-0.05,0.06-0.09l-0.05-3.6     c0-0.11,0.08-0.19,0.19-0.2c0,0,0,0,0,0h0.73c0.11,0,0.2,0.09,0.2,0.2v5.15c0,0.16-0.09,0.3-0.24,0.37     c-0.72,0.34-1.24,0.01-1.6-0.65c-0.63-1.15-1.22-2.31-1.77-3.49c-0.01-0.04-0.06-0.06-0.09-0.04     C120.78,24.46,120.76,24.49,120.76,24.52z"></path>			<path class="st0" d="M52.38,25.98l1.78,0c0.16,0,0.28,0.13,0.28,0.28l0,0.35c0,0.16-0.13,0.28-0.28,0.28l-1.78,0     c-0.16,0-0.28-0.13-0.28-0.28l0-0.35C52.1,26.11,52.23,25.98,52.38,25.98z"></path>			<path class="st1" d="M56.2,34.13c-0.83-0.06-1.45-0.88-1.38-1.83c0.07-0.95,0.79-1.68,1.62-1.62c0.83,0.06,1.45,0.88,1.38,1.83     C57.76,33.46,57.03,34.18,56.2,34.13C56.2,34.13,56.2,34.13,56.2,34.13z M56.32,33.72c0.57,0.01,1.04-0.58,1.04-1.31     c0.01-0.73-0.45-1.32-1.02-1.33c-0.57-0.01-1.04,0.58-1.04,1.31C55.3,33.12,55.75,33.71,56.32,33.72L56.32,33.72z"></path>			<path class="st1" d="M60.3,32.64l-0.5-0.02c-0.1,0-0.18-0.08-0.18-0.19c0-0.1,0.09-0.18,0.19-0.18l0,0h0.92     c0.11,0,0.2,0.09,0.2,0.2v1.24c0,0.07-0.04,0.14-0.11,0.17c-3.25,1.4-3.43-3.83-0.31-3.12c0.28,0.06,0.43,0.23,0.46,0.51     c0,0.04-0.03,0.08-0.07,0.09c-0.01,0-0.02,0-0.03,0c-3.05-0.92-2.57,2.87-0.49,2.19c0.07-0.02,0.1-0.07,0.1-0.15l-0.01-0.58     C60.46,32.7,60.4,32.64,60.3,32.64z"></path>			<path class="st1" d="M67.26,32.71v1.18c0,0.13-0.06,0.18-0.19,0.17l-0.14-0.02c-0.07-0.01-0.13-0.07-0.13-0.14l-0.02-2.91     c0-0.08,0.03-0.15,0.09-0.21l0.1-0.1c0.07-0.07,0.18-0.07,0.25,0c0.03,0.03,0.05,0.08,0.05,0.12v1.15c0,0.11,0.05,0.16,0.16,0.16     h1.08c0.13,0,0.2-0.07,0.2-0.2v-1.01c0-0.11,0.05-0.16,0.16-0.16h0.13c0.11,0,0.16,0.05,0.16,0.16v3.02     c0,0.1-0.08,0.18-0.17,0.18c-0.03,0-0.06-0.01-0.08-0.02l-0.13-0.07c-0.06-0.03-0.1-0.1-0.1-0.17l0.04-1.13     c0-0.09-0.04-0.14-0.13-0.14h-1.18C67.3,32.58,67.26,32.62,67.26,32.71z"></path>			<path class="st1" d="M78.28,31.74c-0.16,0.67-0.33,1.36-0.5,2.06c-0.01,0.04-0.03,0.08-0.06,0.11c-0.05,0.05-0.07,0.09-0.09,0.1     c-0.17,0.11-0.4,0.07-0.52-0.09c-0.02-0.03-0.04-0.06-0.05-0.1l-0.84-2.94c-0.04-0.14,0.01-0.19,0.15-0.18l0.16,0.02     c0.1,0.01,0.16,0.07,0.19,0.16l0.6,2.33c0.01,0.05,0.07,0.08,0.12,0.06c0.03-0.01,0.05-0.03,0.06-0.06l0.6-2.33     c0.04-0.15,0.19-0.23,0.34-0.2c0.1,0.03,0.17,0.1,0.2,0.2l0.59,2.26c0.02,0.07,0.09,0.12,0.16,0.1c0.05-0.01,0.09-0.05,0.1-0.1     l0.6-2.32c0.01-0.06,0.08-0.1,0.14-0.09c0.05,0.01,0.09-0.01,0.11-0.05c0.04-0.07,0.11-0.07,0.16-0.01     c0.04,0.05,0.06,0.13,0.04,0.2l-0.87,3c-0.06,0.19-0.25,0.29-0.44,0.24c-0.12-0.04-0.21-0.13-0.24-0.25l-0.55-2.13     c-0.01-0.05-0.06-0.08-0.11-0.06C78.32,31.69,78.29,31.71,78.28,31.74z"></path>			<path class="st1" d="M102.92,31.87c0,0.09,0.06,0.17,0.15,0.17c0.05,0,0.1-0.02,0.14-0.06l0.96-1.22     c0.06-0.08,0.18-0.1,0.26-0.04c0.16,0.1,0.18,0.22,0.06,0.34c-0.43,0.45-0.76,0.83-1,1.12c-0.06,0.07-0.06,0.16,0,0.23l1.13,1.42     c0.05,0.07,0.04,0.16-0.03,0.22c-0.03,0.02-0.06,0.03-0.09,0.03c-0.2,0-0.35-0.1-0.47-0.3c-0.27-0.45-0.6-0.86-0.98-1.23     c-0.04-0.04-0.09-0.04-0.13,0c-0.02,0.02-0.03,0.05-0.03,0.07l0.06,1.17c0.01,0.13-0.1,0.25-0.23,0.25     c-0.06,0-0.12-0.02-0.17-0.06c-0.1-0.08-0.14-0.21-0.13-0.38c0.05-0.91,0.07-1.82,0.05-2.73c0-0.1,0.05-0.14,0.14-0.14h0.16     c0.12,0,0.17,0.06,0.16,0.17L102.92,31.87z"></path>			<path class="st1" d="M53.07,31.14H52.4c-0.11,0-0.19-0.08-0.19-0.19c0-0.11,0.08-0.19,0.19-0.2c0.71-0.01,1.42-0.01,2.14-0.01     c0.09,0,0.17,0.07,0.18,0.16c0.01,0.08-0.01,0.14-0.06,0.19c-0.03,0.03-0.09,0.04-0.16,0.04c-0.2-0.01-0.4-0.01-0.6,0.01     c-0.11,0.01-0.17,0.07-0.17,0.18v2.49c0,0.09-0.05,0.17-0.13,0.21c-0.15,0.08-0.26,0.05-0.34-0.08     c-0.03-0.04-0.04-0.09-0.03-0.16c0.05-0.82,0.07-1.64,0.03-2.46C53.26,31.22,53.17,31.14,53.07,31.14z"></path>			<path class="st1" d="M62.13,32.69v0.81c0,0.06,0.05,0.11,0.1,0.11l1.23,0.04c0.12,0,0.21,0.1,0.21,0.22     c0,0.12-0.1,0.21-0.22,0.21l-1.58-0.04c-0.12,0-0.18-0.06-0.18-0.18v-2.9c0-0.1,0.05-0.15,0.15-0.17     c0.53-0.08,1.05-0.07,1.58,0.01c0.09,0.01,0.16,0.09,0.16,0.18c-0.01,0.09-0.09,0.16-0.18,0.16l0,0l-1.1,0.01     c-0.1,0-0.19,0.09-0.19,0.19c0,0,0,0,0,0.01l0.02,0.65c0,0.08,0.06,0.14,0.14,0.14h0.86c0.12,0,0.22,0.1,0.22,0.22     c0,0.12-0.1,0.22-0.22,0.22l0,0l-0.9,0.02C62.18,32.59,62.13,32.63,62.13,32.69z"></path>			<path class="st1" d="M65.28,31.34l0.04,2.55c0,0.1-0.08,0.18-0.18,0.18c-0.1,0-0.18-0.03-0.24-0.09     c-0.04-0.04-0.06-0.11-0.06-0.2c-0.02-0.82-0.01-1.64,0.05-2.46c0.01-0.13-0.05-0.19-0.18-0.18l-0.64,0.04     c-0.08,0-0.15-0.06-0.15-0.14c0,0,0-0.01,0-0.01v-0.09c0-0.13,0.07-0.2,0.2-0.2h1.8c0.06,0,0.11,0.01,0.16,0.03     c0.2,0.07,0.27,0.16,0.22,0.25c-0.03,0.06-0.09,0.1-0.16,0.1l-0.69,0.03C65.34,31.16,65.28,31.22,65.28,31.34z"></path>			<path class="st1" d="M70.59,33.62l1.1,0.01c0.12-0.01,0.22,0.08,0.23,0.2c0.01,0.12-0.08,0.22-0.2,0.23     c-0.54,0.06-1.08,0.04-1.61-0.06c-0.07-0.01-0.11-0.07-0.11-0.14l-0.02-2.76c0-0.16,0.12-0.29,0.27-0.3     c0.49-0.05,0.98-0.06,1.47-0.03c0.1,0.02,0.18,0.11,0.16,0.22c-0.01,0.09-0.09,0.16-0.17,0.16h-1.08c-0.11,0-0.16,0.05-0.16,0.16     v0.65c0,0.11,0.05,0.16,0.16,0.16h0.83c0.11,0,0.2,0.09,0.2,0.19c0,0.08-0.05,0.16-0.12,0.19c-0.26,0.11-0.53,0.12-0.81,0.02     c-0.1-0.04-0.21,0.01-0.25,0.12c-0.01,0.02-0.01,0.05-0.01,0.07v0.79C70.46,33.58,70.5,33.62,70.59,33.62z"></path>			<path class="st1" d="M74.08,32.52l0.64,1.31c0.06,0.11,0.02,0.19-0.09,0.22c-0.12,0.04-0.24,0.02-0.34-0.06     c-0.15-0.12-0.44-1.02-0.65-1.33c-0.12-0.17-0.36-0.21-0.53-0.09c-0.1,0.07-0.16,0.19-0.16,0.31v1.03c0,0.09-0.07,0.16-0.16,0.16     c-0.03,0-0.05-0.01-0.07-0.02l-0.1-0.05c-0.08-0.04-0.12-0.11-0.12-0.2v-2.8c0-0.08,0.05-0.16,0.13-0.18     c0.75-0.24,2.12-0.09,1.87,1.02c-0.05,0.24-0.17,0.32-0.36,0.46C74.05,32.36,74.04,32.44,74.08,32.52z M72.94,31.33V32     c0,0.1,0.08,0.19,0.19,0.19c0,0,0,0,0,0h0.33c0.33,0,0.61-0.21,0.61-0.48c0,0,0,0,0,0v-0.08c0-0.27-0.27-0.48-0.6-0.48h-0.33     C73.02,31.14,72.94,31.23,72.94,31.33C72.94,31.33,72.94,31.33,72.94,31.33z"></path>			<path class="st1" d="M81.69,33.61l1.18,0.04c0.12,0,0.21,0.1,0.21,0.22c0,0.12-0.1,0.21-0.22,0.21l0,0l-1.57-0.04     c-0.12,0-0.17-0.06-0.17-0.18v-2.93c0-0.09,0.07-0.17,0.17-0.18c0.51-0.03,1.03-0.02,1.55,0.02c0.1,0,0.18,0.09,0.17,0.19     c0,0.1-0.09,0.18-0.19,0.17l0,0l-1.08,0.02c-0.1,0-0.18,0.08-0.18,0.18c0,0,0,0,0,0.01l0.03,0.61c0,0.08,0.07,0.15,0.15,0.15     l1,0.04c0.11,0.01,0.19,0.11,0.18,0.22c-0.01,0.09-0.08,0.16-0.17,0.18l-1.05,0.05c-0.08,0-0.12,0.05-0.12,0.13v0.76     C81.57,33.56,81.61,33.61,81.69,33.61z"></path>			<path class="st1" d="M86.89,31.38c-2.67-1.13-2.15,3.31-0.09,2.04c0.06-0.03,0.13-0.02,0.16,0.04c0,0.01,0.01,0.01,0.01,0.02     c0.06,0.16,0.04,0.27-0.06,0.33c-2.68,1.64-3.28-3.8-0.31-2.98c0.28,0.08,0.43,0.22,0.45,0.43     C87.06,31.4,87.01,31.43,86.89,31.38z"></path>			<path class="st1" d="M89.12,33.21l-1.03,0.04c-0.09,0-0.15,0.05-0.19,0.13l-0.25,0.58c-0.04,0.09-0.11,0.13-0.2,0.13     c-0.03,0-0.07,0-0.1,0c-0.06,0-0.11-0.05-0.11-0.11c0-0.01,0-0.03,0.01-0.04l1.04-2.97c0.07-0.19,0.27-0.29,0.46-0.22     c0.1,0.04,0.19,0.12,0.22,0.22l1.05,2.86c0.04,0.12-0.02,0.25-0.13,0.29c-0.11,0.04-0.24-0.01-0.28-0.12l-0.27-0.63     C89.3,33.25,89.22,33.2,89.12,33.21z M88.09,32.71c-0.02,0.05,0.01,0.1,0.05,0.12c0.01,0,0.02,0.01,0.03,0.01l0.87,0.01     c0.05,0,0.09-0.04,0.09-0.09c0-0.01,0-0.02-0.01-0.03l-0.42-1.23c-0.02-0.05-0.07-0.07-0.12-0.06c-0.03,0.01-0.05,0.03-0.06,0.06     L88.09,32.71z"></path>			<path class="st1" d="M92.33,32.86c0.33,0.61,0.45,0.57,0.36-0.12c-0.08-0.62-0.1-1.23-0.06-1.84c0.01-0.09,0.09-0.16,0.18-0.15     c0,0,0,0,0,0c0.02,0,0.04,0,0.07,0c0.13-0.01,0.2,0.06,0.2,0.19v2.84c0,0.18-0.14,0.33-0.33,0.33c-0.12,0-0.24-0.07-0.29-0.17     l-1.29-2.34c-0.03-0.05-0.09-0.06-0.14-0.04c-0.03,0.02-0.05,0.06-0.05,0.1c0.07,0.73,0.07,1.48,0.01,2.25     c-0.02,0.21-0.13,0.22-0.33,0.04c-0.04-0.03-0.06-0.08-0.06-0.13v-2.69c0-0.21,0.17-0.37,0.38-0.37c0.13,0,0.26,0.07,0.32,0.19     L92.33,32.86z"></path>			<path class="st1" d="M98.24,31.82c0.01-0.51-0.08-0.53-0.27-0.05l-0.86,2.18c-0.06,0.14-0.21,0.2-0.35,0.15     c-0.07-0.03-0.12-0.08-0.15-0.15l-0.94-2.44c-0.02-0.04-0.06-0.06-0.1-0.04c-0.03,0.01-0.05,0.04-0.05,0.07l0.05,2.35     c0,0.1-0.06,0.18-0.16,0.2c-0.25,0.05-0.36-0.04-0.35-0.27c0.05-0.96,0.06-1.85,0.03-2.68c-0.01-0.24,0.18-0.43,0.41-0.44     c0.18-0.01,0.35,0.1,0.41,0.27l0.82,2.14c0.03,0.08,0.12,0.12,0.2,0.09c0.04-0.02,0.07-0.05,0.09-0.08l0.85-2.13     c0.08-0.22,0.33-0.32,0.54-0.24c0.16,0.06,0.27,0.22,0.27,0.4v2.74c0,0.11-0.05,0.17-0.16,0.19l-0.1,0.02     c-0.11,0.02-0.22-0.05-0.24-0.16c0-0.01,0-0.03,0-0.04L98.24,31.82z"></path>			<path class="st1" d="M101.12,33.23h-1.19c-0.07,0-0.13,0.06-0.13,0.13c0,0,0,0.01,0,0.01c0.01,0.31-0.1,0.54-0.33,0.7     c-0.08,0.06-0.19,0.04-0.24-0.04c-0.03-0.05-0.04-0.11-0.02-0.16l1.07-2.96c0.07-0.18,0.27-0.27,0.45-0.21     c0.1,0.04,0.17,0.11,0.21,0.21l1.04,2.91c0.04,0.1-0.01,0.21-0.11,0.25c-0.07,0.03-0.14,0.01-0.2-0.04     c-0.18-0.16-0.29-0.37-0.32-0.62C101.31,33.29,101.24,33.23,101.12,33.23z M100.06,32.7c-0.02,0.06,0.01,0.12,0.07,0.14     c0.01,0,0.02,0.01,0.03,0.01l0.84,0c0.06,0,0.11-0.05,0.11-0.11c0-0.01,0-0.03-0.01-0.04l-0.42-1.22     c-0.02-0.06-0.08-0.09-0.14-0.07c-0.03,0.01-0.06,0.04-0.07,0.07L100.06,32.7z"></path>			<path class="st1" d="M105.68,32.73v0.44c0,0.22,0.17,0.41,0.4,0.43l0.93,0.07c0.11,0.02,0.19,0.12,0.17,0.24     c-0.01,0.1-0.1,0.17-0.19,0.18l-1.58-0.04c-0.11,0-0.17-0.06-0.17-0.17l-0.03-2.9c0-0.11,0.09-0.21,0.2-0.21     c0.51-0.03,1.03-0.02,1.54,0.02c0.1,0,0.18,0.08,0.17,0.18c0,0.1-0.09,0.18-0.19,0.18l-1.09,0.02c-0.11,0-0.19,0.09-0.19,0.19     c0,0.01,0,0.01,0,0.02l0.06,0.61c0.01,0.1,0.06,0.15,0.16,0.15l0.81,0.01c0.12,0,0.22,0.1,0.22,0.22c0,0.12-0.1,0.22-0.22,0.22     h-0.82C105.76,32.56,105.68,32.64,105.68,32.73z"></path>			<path class="st1" d="M109.07,30.75l0.09,0c0.11,0,0.19,0.08,0.19,0.19l0.01,2.93c0,0.11-0.08,0.19-0.19,0.19l-0.09,0     c-0.11,0-0.19-0.08-0.19-0.19l-0.01-2.93C108.88,30.84,108.97,30.75,109.07,30.75z"></path>			<path class="st1" d="M110.86,31.43c0-0.17-0.13-0.31-0.3-0.31c-0.03,0-0.05,0-0.08,0.01c-0.26,0.06-0.5,0.03-0.71-0.11     c-0.07-0.04-0.09-0.13-0.04-0.19c0.03-0.04,0.07-0.07,0.12-0.06l2.39-0.02c0.09,0,0.16,0.07,0.16,0.16     c0,0.06-0.03,0.11-0.09,0.14c-0.25,0.12-0.51,0.14-0.78,0.09c-0.11-0.02-0.21,0.05-0.24,0.16c0,0.01,0,0.03,0,0.04l0.04,2.56     c0,0.08-0.07,0.15-0.15,0.15c0,0,0,0,0,0h-0.19c-0.11,0-0.16-0.05-0.16-0.16L110.86,31.43z"></path>		</g>		<g>			<path class="st2" d="M37.55,20.92c-0.59,0.84-1.43,1.35-2.34,1.77c-0.65,0.3-1.31,0.56-1.97,0.85c-0.56,0.24-1.06,0.58-1.53,0.97     c-0.04,0.03-0.09,0.05-0.08,0.14c0.27-0.05,0.51-0.17,0.76-0.26c1.39-0.53,2.78-1.07,4.18-1.6c0.08-0.03,0.19-0.13,0.25-0.04     c0.05,0.07-0.03,0.17-0.07,0.26c-0.51,1.14-1.36,1.94-2.49,2.46c-0.67,0.32-1.37,0.57-2.09,0.75c-0.08,0.02-0.16,0.05-0.27,0.08     c0.09,0.1,0.19,0.09,0.28,0.09c0.95,0.05,1.86-0.18,2.77-0.44c0.24-0.07,0.47-0.14,0.72-0.19c-0.86,1.24-2.09,2.04-3.39,2.76     c0.62,0.06,1.22-0.03,1.81-0.14c0.6-0.12,1.18-0.3,1.77-0.5c-0.06,0.3-0.68,1.07-1.19,1.51c-0.49,0.42-1.01,0.78-1.64,1.09     c0.26,0.08,0.46,0.09,0.66,0.11c0.23,0.02,0.25,0.05,0.18,0.27c-0.27,0.83-0.83,1.42-1.52,1.91c-0.13,0.1-0.17-0.02-0.21-0.1     c-0.26-0.47-0.52-0.94-0.77-1.42c-0.66-1.26-1.27-2.54-1.81-3.85c-0.64-1.54-0.34-2.93,0.6-4.23c0.75-1.04,1.7-1.87,2.68-2.68     c1.43-1.18,2.88-2.34,4.16-3.69c0.21-0.22,0.41-0.45,0.61-0.69c0.1-0.12,0.16-0.14,0.21,0.03c0.16,0.57,0.17,1.12-0.17,1.64     c-0.69,1.07-1.63,1.89-2.62,2.67c-0.26,0.21-0.54,0.41-0.81,0.61c-0.17,0.12-0.35,0.24-0.52,0.36c-0.06,0.04-0.13,0.07-0.19,0.12     c-0.03,0.02-0.06,0.04-0.09,0.07c-0.02,0.02-0.1,0.1-0.02,0.09c0.01,0,0.03-0.01,0.04-0.02c0.14-0.08,0.28-0.16,0.42-0.24     c0.52-0.33,1.04-0.64,1.57-0.95c0.45-0.27,0.91-0.54,1.37-0.81c0.38-0.23,0.76-0.45,1.15-0.68c0.19-0.11,0.21-0.11,0.21,0.12     C38.19,19.78,37.93,20.38,37.55,20.92z"></path>			<path class="st2" d="M24.11,27.37c-0.52,1.29-1.12,2.53-1.76,3.76c-0.27,0.51-0.55,1.01-0.81,1.52     c-0.08,0.16-0.15,0.18-0.29,0.07c-0.62-0.49-1.17-1.03-1.43-1.81c-0.09-0.28-0.07-0.31,0.22-0.34c0.18-0.02,0.36-0.05,0.55-0.1     c-1.16-0.62-2.12-1.44-2.84-2.61c0.37,0.12,0.68,0.22,0.99,0.31c0.78,0.22,1.57,0.37,2.38,0.39c0.09,0,0.23,0.05,0.25-0.05     c0.02-0.09-0.12-0.11-0.19-0.14c-1.13-0.59-2.15-1.3-2.98-2.29c-0.06-0.07-0.11-0.14-0.16-0.21c-0.02-0.03-0.03-0.06-0.08-0.15     c0.65,0.2,1.26,0.39,1.88,0.51c0.63,0.13,1.25,0.22,1.94,0.11c-0.14-0.13-0.27-0.14-0.39-0.17c-1.05-0.27-2.05-0.66-2.95-1.28     c-0.72-0.5-1.21-1.19-1.56-1.98c-0.03-0.06-0.08-0.13-0.02-0.18c0.06-0.05,0.12,0,0.18,0.03c0.97,0.37,1.94,0.75,2.92,1.12     c0.62,0.24,1.25,0.48,1.88,0.72c0.06,0.02,0.12,0.06,0.2,0.03c-0.01-0.1-0.09-0.14-0.16-0.19c-0.7-0.58-1.51-0.95-2.34-1.29     c-0.86-0.34-1.71-0.7-2.46-1.26c-0.8-0.61-1.38-1.37-1.56-2.39c-0.03-0.15-0.02-0.3-0.02-0.46c-0.01-0.16,0.06-0.17,0.18-0.09     c0.49,0.3,0.99,0.59,1.48,0.88c0.53,0.32,1.05,0.64,1.58,0.96c0.25,0.15,0.5,0.29,0.75,0.45c0.12,0.08,0.25,0.15,0.37,0.22     c0.06,0.03,0.13,0.07,0.2,0.1c0.06,0.03,0.13,0.07,0.2,0.09c0,0-0.04-0.06-0.05-0.07c-0.03-0.03-0.07-0.06-0.1-0.09     c-0.07-0.05-0.14-0.11-0.21-0.15c-0.13-0.09-0.26-0.17-0.39-0.24c-0.06-0.03-0.11-0.08-0.17-0.13c-0.06-0.04-0.12-0.11-0.19-0.14     c-0.22-0.17-0.45-0.34-0.67-0.52c-0.44-0.35-0.87-0.72-1.27-1.12c-0.17-0.17-0.34-0.35-0.5-0.53c-0.33-0.37-0.67-0.74-0.84-1.21     c-0.16-0.44-0.14-0.88-0.01-1.33c0.04-0.13,0.09-0.17,0.2-0.05c1.15,1.39,2.52,2.56,3.92,3.7c0.95,0.78,1.91,1.55,2.76,2.45     c0.53,0.55,1,1.14,1.33,1.83C24.55,25.15,24.56,26.25,24.11,27.37z"></path>			<path class="st3" d="M26.85,26.36c0.07-0.87,0.01-1.73,0.02-2.6c0.01-0.6-0.03-1.2,0-1.81c0.01-0.19,0.02-0.38-0.01-0.57     c-0.02-0.12-0.05-0.27-0.17-0.27c-0.03,0-0.05,0.02-0.07,0.04c0.01,0.25,0.02,0.49-0.01,0.74c-0.04,0.32-0.03,0.64-0.03,0.95     c0,0,0,0.01,0,0.01c-0.04,0.18-0.01,0.36-0.02,0.55c0,0.05,0.01,0.1,0,0.15c-0.04,0.17-0.02,0.35-0.07,0.52     c-0.03,0.11-0.11,0.22-0.21,0.26c-0.11,0.04-0.25-0.01-0.29-0.12c-0.02-0.06-0.01-0.13,0-0.19c0.15-0.8,0.31-1.6,0.46-2.4     c0.03-0.16,0.06-0.32,0.14-0.47c0.04-0.08,0.1-0.16,0.14-0.24c0.1-0.2,0.12-0.43,0.11-0.65c-0.01-0.21-0.02-0.39,0-0.6     c0.01-0.07-0.02-0.18-0.12-0.18c-0.09,0.01-0.07,0.11-0.07,0.18c0,0.03,0,0.06-0.03,0.08c-0.2,0.82-0.39,1.65-0.6,2.47     c-0.22,0.87-0.46,1.74-0.74,2.6c-0.7,2.2-1.51,4.37-2.61,6.41c-0.67,1.25-1.4,2.45-2.39,3.47c-0.11,0.11-0.08,0.17,0.01,0.27     c0.24,0.23,0.48,0.47,0.71,0.71c0.14,0.15,0.2,0.1,0.29-0.05c0.24-0.42,0.5-0.83,0.75-1.25c0.08-0.14,0.18-0.15,0.3-0.07     c0.13,0.09,0.27,0.18,0.4,0.26c0.89,0.59,1.78,1.18,2.68,1.75c0.3,0.19,0.48,0.37,0.42,0.77c-0.08,0.51-0.08,1.03-0.1,1.54     c-0.01,0.36-0.11,0.74,0.28,1c0.18,0.12,0.33,0.28,0.49,0.43c0.03,0.02,0.05,0.03,0.07,0.05c0.15,0.12,0.22,0.09,0.25-0.1     c0.01-0.09,0.01-0.17,0.01-0.26c0-4.27,0-8.55,0-12.82C26.88,26.75,26.83,26.55,26.85,26.36z M23.12,32.53     c-0.06-0.06,0.01-0.12,0.04-0.17c0.16-0.35,0.33-0.69,0.49-1.04c0.05-0.12,0.12-0.13,0.22-0.08c0.25,0.13,0.5,0.26,0.75,0.4     c0.04,0.02,0.08,0.04,0.08,0.1c-0.02,0.06-0.07,0.09-0.12,0.12c-0.43,0.22-0.85,0.44-1.28,0.66     C23.25,32.53,23.18,32.59,23.12,32.53z M26.07,32.6c-0.01,0.11,0,0.22,0,0.36c-0.04,0.72-0.09,1.46-0.13,2.21     c-0.01,0.17-0.09,0.18-0.21,0.09c-0.66-0.48-1.33-0.96-1.99-1.44c-0.13-0.09-0.26-0.19-0.38-0.29c-0.17-0.13-0.17-0.18,0.02-0.27     c0.65-0.31,1.3-0.61,1.94-0.94c0.23-0.12,0.41-0.15,0.62,0.01C26.03,32.41,26.08,32.48,26.07,32.6z M26.2,30.24     c-0.02,0.25,0,0.45-0.04,0.64c-0.05,0.26-0.4,0.45-0.64,0.33c-0.34-0.17-0.68-0.35-1.02-0.52c-0.06-0.03-0.14-0.04-0.14-0.12     c0-0.07,0.08-0.08,0.13-0.1c0.5-0.24,1.01-0.48,1.52-0.71c0.15-0.07,0.2-0.02,0.19,0.14C26.2,30.02,26.2,30.16,26.2,30.24z      M25.95,29.23c-0.51,0.23-1.01,0.49-1.51,0.73c-0.06,0.03-0.12,0.09-0.18,0.04c-0.07-0.05-0.01-0.12,0.01-0.18     c0.23-0.63,0.46-1.25,0.68-1.88c0.06-0.16,0.12-0.18,0.27-0.11c0.3,0.15,0.6,0.3,0.9,0.43c0.23,0.1,0.14,0.29,0.16,0.53     C26.36,29.01,26.19,29.12,25.95,29.23z M26.34,27.24c0,0.02,0,0.03,0,0.04c0,0,0,0,0-0.01c-0.02,0.45-0.02,0.45-0.38,0.29     c-0.09-0.04-0.18-0.08-0.28-0.12c-0.05-0.02-0.11-0.03-0.11-0.09c0-0.07,0.07-0.09,0.12-0.11c0.14-0.06,0.28-0.13,0.42-0.18     c0.07-0.03,0.15-0.09,0.22-0.03C26.4,27.09,26.35,27.17,26.34,27.24z M26.48,25.22c-0.07,0.45-0.06,0.78-0.07,1.11     c0,0.18-0.06,0.3-0.27,0.36c-0.23,0.05-0.44,0.17-0.67,0.26c-0.05,0.02-0.1,0.06-0.16,0.01c-0.04-0.04-0.02-0.09-0.01-0.14     c0.17-0.6,0.34-1.2,0.51-1.8c0.04-0.15,0.13-0.2,0.28-0.12C26.28,24.99,26.55,25.02,26.48,25.22z M26.39,24.75     c-0.11-0.03-0.3-0.02-0.3-0.16c0-0.11,0.17-0.14,0.28-0.16c0.12-0.03,0.13,0.08,0.13,0.18C26.5,24.68,26.5,24.78,26.39,24.75z"></path>			<path class="st4" d="M26.85,26.36c0.07-0.87,0.01-1.73,0.02-2.6c0.01-0.6-0.03-1.2,0-1.81c0.01-0.19,0.02-0.38-0.01-0.57     c-0.02-0.12-0.05-0.27-0.17-0.27c-0.03,0-0.05,0.02-0.07,0.04c0.01,0.25,0.02,0.49-0.01,0.74c-0.04,0.32-0.03,0.64-0.03,0.95     c0.08-0.06,0.04-0.15,0.04-0.23c0-0.49,0.08-0.98,0.05-1.47c0.05,0.08,0.11,0.14,0.12,0.25c0.03,0.4-0.05,0.81-0.02,1.21     c0.02,0.27-0.03,0.57-0.01,0.83c0.03,0.46,0,0.91,0.02,1.36c0.03,0.67,0.01,1.33,0.01,2v13.09c0,0.3,0,0.3-0.26,0.18     c0.03,0.02,0.05,0.03,0.07,0.05c0.15,0.12,0.22,0.09,0.25-0.1c0.01-0.09,0.01-0.17,0.01-0.26c0-4.27,0-8.55,0-12.82     C26.88,26.75,26.83,26.55,26.85,26.36z M26.73,19.49c-0.09,0.01-0.07,0.11-0.07,0.18c0,0.03,0,0.06-0.03,0.08     c0.1-0.05-0.01-0.19,0.12-0.23c0.03,0.1,0.06,0.18,0.03,0.29c-0.05,0.22-0.04,0.45-0.01,0.67c0.02,0.13,0,0.24-0.02,0.36     c-0.01,0.03-0.01,0.18-0.1,0.04c-0.03-0.04-0.05,0.01-0.07,0.05c-0.03,0.07-0.05,0.15-0.04,0.23c0.02,0,0.04-0.04,0.06-0.05     c0-0.05,0.01-0.09,0.07-0.11c0.14-0.05,0.17-0.19,0.17-0.3c-0.01-0.34-0.03-0.68,0-1.02C26.85,19.6,26.83,19.48,26.73,19.49z"></path>			<path class="st5" d="M33.33,34.72c-0.49-0.53-0.94-1.11-1.34-1.72c-0.69-1.03-1.26-2.12-1.78-3.24c-0.62-1.34-1.13-2.72-1.6-4.12     c-0.34-1-0.63-2.02-0.91-3.04c-0.24-0.89-0.47-1.78-0.64-2.68c-0.07-0.35-0.15-0.7-0.22-1.05c-0.11,0.29-0.2,0.58-0.21,0.88     c0.02-0.02,0.03-0.05,0.03-0.08c0-0.07-0.02-0.17,0.07-0.18c0.1-0.01,0.12,0.1,0.12,0.18c-0.03,0.34-0.01,0.68,0,1.02     c0,0.12-0.03,0.25-0.17,0.3c-0.06,0.02-0.07,0.07-0.07,0.11c0.01-0.01,0.02,0,0.02,0.05v0c0.01-0.02,0.03-0.04,0.07-0.04     c0.12-0.01,0.15,0.15,0.17,0.27c0.02,0.19,0.02,0.38,0.01,0.57c-0.03,0.6,0.01,1.2,0,1.81c-0.01,0.87,0.05,1.73-0.02,2.6     c-0.02,0.2,0.03,0.39,0.03,0.59c0,4.27,0,8.55,0,12.82c0,0.09,0,0.17-0.01,0.26c-0.03,0.19-0.1,0.22-0.25,0.1     c-0.02-0.02-0.05-0.04-0.07-0.05c0.22,0.28,0.26,0.28,0.5,0.05c0.2-0.19,0.38-0.38,0.6-0.54c0.17-0.12,0.23-0.26,0.22-0.46     c-0.04-0.76-0.06-1.52-0.1-2.29c-0.01-0.14,0.03-0.23,0.15-0.31c0.39-0.24,0.77-0.5,1.15-0.75c0.71-0.47,1.43-0.95,2.14-1.42     c0.18-0.12,0.28-0.08,0.38,0.1c0.23,0.41,0.49,0.81,0.73,1.21c0.08,0.14,0.16,0.16,0.29,0.04c0.23-0.24,0.47-0.48,0.71-0.71     C33.42,34.9,33.43,34.83,33.33,34.72z M26.98,21.36c0-0.09,0-0.17,0-0.26c0.02,0,0.04,0,0.06,0c0.08,0.39,0.16,0.77,0.24,1.16     c0.12,0.63,0.24,1.25,0.35,1.88c0.03,0.19-0.01,0.23-0.19,0.18c-0.32-0.1-0.32-0.1-0.33-0.43C27.08,23.04,27.03,22.2,26.98,21.36     z M27.16,24.59c0-0.07,0.02-0.14,0.11-0.12c0.09,0.03,0.24,0.02,0.24,0.12c0,0.1-0.14,0.12-0.2,0.13     C27.16,24.74,27.16,24.67,27.16,24.59z M27.2,25.26c0-0.18,0.31-0.43,0.48-0.39c0.08,0.02,0.1,0.1,0.12,0.17     c0.16,0.57,0.32,1.14,0.47,1.72c0.02,0.08,0.06,0.18-0.07,0.21c-0.27,0.01-0.49-0.11-0.7-0.27c-0.25-0.08-0.26-0.26-0.28-0.49     C27.22,25.9,27.2,25.58,27.2,25.26z M27.29,27.49c0.02-0.16-0.04-0.33,0.04-0.49c0.23,0.04,0.43,0.18,0.64,0.26     c0.12,0.04,0.11,0.11,0,0.16c-0.17,0.08-0.34,0.15-0.51,0.23C27.34,27.68,27.27,27.63,27.29,27.49z M27.47,28.27     c0.26-0.2,0.56-0.34,0.87-0.43c0,0,0,0,0,0h0c0.21-0.09,0.3,0.01,0.37,0.2c0.19,0.56,0.4,1.12,0.59,1.68     c0.03,0.09,0.12,0.19,0.06,0.26c-0.06,0.07-0.15-0.06-0.24-0.05l-1.53-0.74C27.32,28.99,27.25,28.48,27.47,28.27z M27.42,29.89     c0-0.13,0.04-0.19,0.17-0.17c0.49,0.23,0.98,0.46,1.47,0.7c0.07,0.03,0.17,0.04,0.18,0.13c0.01,0.11-0.1,0.11-0.16,0.14     c-0.26,0.14-0.53,0.25-0.77,0.4c-0.25,0.16-0.47,0.2-0.72,0.02c-0.09-0.07-0.13-0.15-0.13-0.27     C27.47,30.52,27.41,30.21,27.42,29.89z M30.28,33.53c-0.79,0.56-1.57,1.12-2.35,1.67c-0.06,0.04-0.12,0.13-0.21,0.08     c-0.07-0.04-0.04-0.13-0.04-0.2c-0.04-0.82-0.08-1.63-0.13-2.45c-0.01-0.13,0.02-0.23,0.13-0.3c0.21-0.17,0.41-0.14,0.64-0.02     c0.69,0.35,1.38,0.68,2.07,1.02C30.41,33.43,30.35,33.48,30.28,33.53z M30.31,32.51c-0.32-0.17-0.65-0.34-0.97-0.51     c-0.1-0.05-0.2-0.11-0.3-0.16c-0.13-0.07-0.16-0.14,0-0.22c0.24-0.12,0.47-0.25,0.71-0.37c0.13-0.02,0.2,0.03,0.25,0.15     c0.12,0.31,0.24,0.62,0.41,0.91C30.46,32.41,30.48,32.51,30.31,32.51z"></path>			<path class="st2" d="M35.63,17.1c0,0.38-0.21,0.62-0.52,0.65c-0.29,0.03-0.59-0.19-0.64-0.48c-0.33-1.87-1.26-3.39-2.69-4.61     c-0.92-0.78-1.97-1.3-3.15-1.57c-1.26-0.3-2.52-0.3-3.76,0.03c-2.03,0.54-3.61,1.71-4.71,3.51c-0.49,0.8-0.82,1.67-0.99,2.59     c-0.07,0.38-0.36,0.6-0.7,0.53c-0.34-0.07-0.53-0.35-0.45-0.74c0.48-2.47,1.78-4.41,3.87-5.82c1.17-0.79,2.46-1.29,3.86-1.42     c3.76-0.33,6.7,1.1,8.75,4.28c0.57,0.88,0.9,1.86,1.12,2.87C35.63,16.99,35.63,17.07,35.63,17.1z"></path>			<path class="st3" d="M26.62,14.12c2.07,0,3.79,1.23,4.43,3c0.42,1.16,0.39,2.3-0.11,3.42c-0.38,0.85-0.99,1.51-1.79,2     c-0.25,0.15-0.56,0.06-0.75-0.19c-0.17-0.23-0.13-0.56,0.09-0.75c0.11-0.09,0.24-0.17,0.35-0.26c0.83-0.62,1.29-1.45,1.32-2.49     c0.04-1.3-0.51-2.32-1.58-3.03c-0.63-0.42-1.35-0.57-2.12-0.49c-0.89,0.09-1.63,0.47-2.21,1.15c-0.63,0.74-0.9,1.6-0.79,2.57     c0.09,0.86,0.45,1.58,1.09,2.17c0.13,0.12,0.29,0.22,0.43,0.33c0.31,0.23,0.36,0.53,0.13,0.85c-0.18,0.24-0.55,0.28-0.82,0.09     c-0.94-0.67-1.61-1.54-1.88-2.67c-0.35-1.45-0.09-2.81,0.86-3.98C24.2,14.7,25.39,14.15,26.62,14.12z"></path>			<path class="st6" d="M26.85,11.92c2.12,0.07,3.87,0.88,5.21,2.55c0.97,1.2,1.44,2.58,1.48,4.11c0.01,0.38-0.21,0.63-0.53,0.65     c-0.36,0.03-0.62-0.23-0.63-0.62c-0.02-0.71-0.14-1.4-0.41-2.06c-0.98-2.39-3.54-3.81-6.09-3.37c-2.35,0.41-4.2,2.3-4.55,4.64     c-0.04,0.26-0.04,0.52-0.06,0.78c-0.02,0.38-0.25,0.63-0.59,0.62c-0.32,0-0.56-0.25-0.56-0.62c0-1.48,0.45-2.82,1.35-4     c1.05-1.39,2.44-2.24,4.15-2.58C26.01,11.96,26.43,11.92,26.85,11.92z"></path>			<path class="st7" d="M26.57,23.56c0,0.03-0.01,0.06-0.02,0.08C26.56,23.61,26.56,23.59,26.57,23.56z"></path>			<path class="st4" d="M26.57,23.56c0-0.05-0.01-0.1,0-0.15c0.01-0.18-0.02-0.37,0.02-0.55c0,0,0-0.01,0-0.01     C26.57,23.09,26.63,23.32,26.57,23.56z"></path>		</g>	</g></g></svg>